<svg id="svg" version="1.1" xmlns="http://www.w3.org/2000/svg" xmlns:xlink="http://www.w3.org/1999/xlink" width="400" height="376.837416481069" viewBox="0, 0, 400,376.837416481069"><g id="svgg"><path id="path0" d="M177.568 13.014 C 87.793 24.152,22.819 95.824,20.838 185.902 C 18.569 289.041,102.661 371.744,204.474 366.506 C 249.098 364.210,283.488 348.954,318.379 315.974 C 324.045 310.619,326.204 309.495,328.488 310.712 C 330.945 312.020,331.038 312.754,331.385 333.648 C 331.840 360.956,330.035 358.907,353.629 358.907 C 370.658 358.907,371.589 358.789,373.578 356.376 C 375.595 353.929,375.510 361.703,375.405 189.067 L 375.306 26.956 374.364 25.071 C 373.668 23.679,372.978 22.939,371.725 22.243 L 370.028 21.301 354.194 21.301 C 329.831 21.301,331.736 19.046,331.417 48.256 C 331.174 70.493,331.160 70.620,328.725 71.964 C 326.353 73.272,325.614 72.742,315.191 62.253 C 286.525 33.404,256.101 17.876,219.039 13.176 C 213.689 12.498,182.705 12.376,177.568 13.014 M213.784 57.511 C 248.585 60.785,272.285 71.620,295.246 94.753 C 323.020 122.735,335.324 153.471,335.339 194.910 C 335.353 233.413,323.773 262.468,298.219 288.044 C 238.462 347.854,140.692 339.878,92.111 271.231 C 30.849 184.664,85.809 66.093,191.329 57.182 C 195.737 56.809,208.285 56.993,213.784 57.511 " stroke="none" fill-rule="evenodd"></path></g></svg>
