<svg width="20" height="24" viewBox="0 0 20 24" fill="none" xmlns="http://www.w3.org/2000/svg">
<path d="M1.84445 7.14515V20.9931C1.84445 21.8116 2.14458 22.5803 2.66887 23.1318C3.19075 23.6848 3.91704 23.9988 4.67714 24.0001H15.3115C16.0718 23.9988 16.7981 23.6848 17.3197 23.1318C17.844 22.5803 18.1442 21.8116 18.1442 20.9931V7.14515C19.1864 6.86851 19.8617 5.86164 19.7223 4.79219C19.5827 3.72296 18.6718 2.92312 17.5933 2.9229H14.7156V2.22033C14.7189 1.62951 14.4853 1.06218 14.067 0.644808C13.6488 0.227654 13.0806 -0.00463428 12.4898 0.00019592H7.49885C6.90803 -0.00463428 6.33982 0.227654 5.92157 0.644808C5.50332 1.06218 5.26972 1.62951 5.27301 2.22033V2.9229H2.39531C1.31686 2.92312 0.405927 3.72296 0.266291 4.79219C0.126874 5.86164 0.802223 6.86851 1.84445 7.14515ZM15.3115 22.876H4.67714C3.71615 22.876 2.96857 22.0505 2.96857 20.9931V7.19455H17.02V20.9931C17.02 22.0505 16.2725 22.876 15.3115 22.876ZM6.39713 2.22033C6.39339 1.92766 6.50844 1.64598 6.71614 1.43937C6.92362 1.23277 7.20596 1.11926 7.49885 1.12431H12.4898C12.7826 1.11926 13.065 1.23277 13.2725 1.43937C13.4802 1.64576 13.5952 1.92766 13.5915 2.22033V2.9229H6.39713V2.22033ZM2.39531 4.04702H17.5933C18.1521 4.04702 18.605 4.49996 18.605 5.05873C18.605 5.61749 18.1521 6.07043 17.5933 6.07043H2.39531C1.83654 6.07043 1.3836 5.61749 1.3836 5.05873C1.3836 4.49996 1.83654 4.04702 2.39531 4.04702Z" fill="white"/>
</svg>
