<svg width="24" height="24" viewBox="0 0 24 24" fill="none" xmlns="http://www.w3.org/2000/svg">
<g clip-path="url(#clip0)">
<path d="M15.3104 8.69519C15 8.69519 14.7484 8.9468 14.7484 9.25725V19.8802C14.7484 20.1904 15 20.4423 15.3104 20.4423C15.6209 20.4423 15.8725 20.1904 15.8725 19.8802V9.25725C15.8725 8.9468 15.6209 8.69519 15.3104 8.69519Z" fill="white"/>
<path d="M8.67809 8.69519C8.36764 8.69519 8.11603 8.9468 8.11603 9.25725V19.8802C8.11603 20.1904 8.36764 20.4423 8.67809 20.4423C8.98854 20.4423 9.24015 20.1904 9.24015 19.8802V9.25725C9.24015 8.9468 8.98854 8.69519 8.67809 8.69519Z" fill="white"/>
<path d="M3.84445 7.14515V20.9931C3.84445 21.8116 4.14458 22.5803 4.66887 23.1318C5.19075 23.6848 5.91704 23.9988 6.67714 24.0001H17.3115C18.0718 23.9988 18.7981 23.6848 19.3197 23.1318C19.844 22.5803 20.1442 21.8116 20.1442 20.9931V7.14515C21.1864 6.86851 21.8617 5.86164 21.7223 4.79219C21.5827 3.72296 20.6718 2.92312 19.5933 2.9229H16.7156V2.22033C16.7189 1.62951 16.4853 1.06218 16.067 0.644808C15.6488 0.227654 15.0806 -0.00463428 14.4898 0.00019592H9.49885C8.90803 -0.00463428 8.33982 0.227654 7.92157 0.644808C7.50332 1.06218 7.26972 1.62951 7.27301 2.22033V2.9229H4.39531C3.31686 2.92312 2.40593 3.72296 2.26629 4.79219C2.12687 5.86164 2.80222 6.86851 3.84445 7.14515ZM17.3115 22.876H6.67714C5.71615 22.876 4.96857 22.0505 4.96857 20.9931V7.19455H19.02V20.9931C19.02 22.0505 18.2725 22.876 17.3115 22.876ZM8.39713 2.22033C8.39339 1.92766 8.50844 1.64598 8.71614 1.43937C8.92362 1.23277 9.20596 1.11926 9.49885 1.12431H14.4898C14.7826 1.11926 15.065 1.23277 15.2725 1.43937C15.4802 1.64576 15.5952 1.92766 15.5915 2.22033V2.9229H8.39713V2.22033ZM4.39531 4.04702H19.5933C20.1521 4.04702 20.605 4.49996 20.605 5.05873C20.605 5.61749 20.1521 6.07043 19.5933 6.07043H4.39531C3.83654 6.07043 3.3836 5.61749 3.3836 5.05873C3.3836 4.49996 3.83654 4.04702 4.39531 4.04702Z" fill="white"/>
<path d="M11.9943 8.69519C11.6839 8.69519 11.4323 8.9468 11.4323 9.25725V19.8802C11.4323 20.1904 11.6839 20.4423 11.9943 20.4423C12.3048 20.4423 12.5564 20.1904 12.5564 19.8802V9.25725C12.5564 8.9468 12.3048 8.69519 11.9943 8.69519Z" fill="white"/>
</g>
<defs>
<clipPath id="clip0">
<rect width="24" height="24" fill="white"/>
</clipPath>
</defs>
</svg>
