<svg width="21" height="13" viewBox="0 0 21 13" fill="none" xmlns="http://www.w3.org/2000/svg">
<path fill-rule="evenodd" clip-rule="evenodd" d="M0 0.75C0 0.335786 0.335786 0 0.75 0H20.25C20.6642 0 21 0.335786 21 0.75C21 1.16421 20.6642 1.5 20.25 1.5H0.75C0.335786 1.5 0 1.16421 0 0.75ZM0 6.25C0 5.83579 0.335786 5.5 0.75 5.5H15.75C16.1642 5.5 16.5 5.83579 16.5 6.25C16.5 6.66421 16.1642 7 15.75 7H0.75C0.335787 7 0 6.66421 0 6.25ZM0.75 11C0.335786 11 0 11.3358 0 11.75C0 12.1642 0.335787 12.5 0.75 12.5H15.75C16.1642 12.5 16.5 12.1642 16.5 11.75C16.5 11.3358 16.1642 11 15.75 11H0.75Z" fill="white"/>
</svg>
