<svg width="23" height="22" viewBox="0 0 23 22" fill="none" xmlns="http://www.w3.org/2000/svg">
<path d="M11.7187 5.38035V10.5944L16.2433 13.2015C16.324 13.2473 16.3948 13.3086 16.4517 13.3818C16.5086 13.455 16.5504 13.5387 16.5747 13.6281C16.599 13.7175 16.6054 13.8108 16.5934 13.9027C16.5814 13.9946 16.5514 14.0832 16.505 14.1634C16.4586 14.2436 16.3967 14.3139 16.323 14.3702C16.2492 14.4264 16.1651 14.4676 16.0753 14.4913C15.9856 14.515 15.892 14.5207 15.8001 14.5081C15.7081 14.4956 15.6195 14.465 15.5394 14.4182L10.6629 11.6083C10.657 11.6051 10.6518 11.6011 10.6461 11.5976C10.6344 11.5905 10.6229 11.5831 10.6116 11.5753C10.6023 11.5689 10.5935 11.562 10.5847 11.5552C10.5758 11.5484 10.567 11.5415 10.5585 11.5342C10.5243 11.5047 10.4928 11.4721 10.4644 11.437C10.4499 11.419 10.4364 11.4003 10.4239 11.3808C10.4176 11.3711 10.4115 11.3611 10.4057 11.351C10.3947 11.3321 10.3846 11.3126 10.3756 11.2927C10.3607 11.2603 10.3482 11.2269 10.3384 11.1927C10.3358 11.1834 10.3334 11.174 10.3312 11.1646C10.3281 11.1523 10.3254 11.1399 10.323 11.1275C10.3211 11.1162 10.3194 11.1049 10.318 11.0935C10.3164 11.0828 10.3151 11.072 10.314 11.0611C10.3128 11.0471 10.3123 11.033 10.3119 11.019C10.3118 11.0126 10.3109 11.0064 10.3109 11V5.38035C10.3109 5.19405 10.3851 5.01538 10.5171 4.88364C10.6491 4.7519 10.8281 4.6779 11.0148 4.6779C11.2015 4.6779 11.3805 4.7519 11.5125 4.88364C11.6445 5.01538 11.7187 5.19405 11.7187 5.38035ZM22.8869 8.06959C22.9104 8.03354 22.9305 7.9954 22.947 7.95567L22.9503 7.94666C22.966 7.90718 22.9782 7.86634 22.9865 7.82466C22.987 7.82232 22.9871 7.8201 22.9876 7.81787C22.9957 7.77527 22.9999 7.732 23 7.68862V3.00558C23 2.81928 22.9258 2.64061 22.7938 2.50887C22.6618 2.37713 22.4828 2.30312 22.2961 2.30312C22.1095 2.30312 21.9304 2.37713 21.7984 2.50887C21.6664 2.64061 21.5923 2.81928 21.5923 3.00558V5.99266L18.812 3.21819C17.2702 1.68084 15.3062 0.634218 13.1685 0.210614C11.0307 -0.212989 8.81506 0.00544892 6.80166 0.838315C4.78826 1.67118 3.06747 3.08108 1.85682 4.8898C0.646167 6.69852 0 8.82485 0 11C0 13.1752 0.646167 15.3015 1.85682 17.1102C3.06747 18.9189 4.78826 20.3288 6.80166 21.1617C8.81506 21.9946 11.0307 22.213 13.1685 21.7894C15.3062 21.3658 17.2702 20.3192 18.812 18.7818C18.8783 18.7168 18.9309 18.6393 18.967 18.5538C19.0031 18.4684 19.0219 18.3767 19.0223 18.2839C19.0226 18.1912 19.0046 18.0993 18.9692 18.0136C18.9338 17.9278 18.8818 17.8499 18.8161 17.7844C18.7504 17.7188 18.6723 17.6668 18.5864 17.6315C18.5005 17.5962 18.4084 17.5782 18.3155 17.5786C18.2226 17.579 18.1307 17.5977 18.0451 17.6337C17.9595 17.6697 17.8818 17.7223 17.8167 17.7884C16.4714 19.131 14.7573 20.0454 12.8914 20.4158C11.0254 20.7862 9.09124 20.5961 7.33353 19.8695C5.57581 19.1428 4.07347 17.9123 3.01648 16.3336C1.95949 14.7548 1.39532 12.8987 1.39532 11C1.39532 9.10126 1.95949 7.24515 3.01648 5.6664C4.07347 4.08766 5.57581 2.85717 7.33353 2.13055C9.09124 1.40393 11.0254 1.21381 12.8914 1.58423C14.7573 1.95465 16.4714 2.86897 17.8167 4.21158L20.5969 6.98617H17.6037C17.4171 6.98617 17.238 7.06017 17.106 7.19191C16.974 7.32365 16.8999 7.50232 16.8999 7.68862C16.8999 7.87493 16.974 8.0536 17.106 8.18533C17.238 8.31707 17.4171 8.39108 17.6037 8.39108H22.2963C22.3395 8.39092 22.3826 8.3868 22.4251 8.37879L22.4326 8.37761C22.4741 8.36934 22.5147 8.35731 22.554 8.34167L22.5638 8.33816C22.6034 8.32175 22.6414 8.30176 22.6774 8.27845C22.6801 8.2767 22.6828 8.27529 22.6856 8.27353C22.7244 8.24781 22.7606 8.21832 22.7935 8.18549L22.7937 8.18538L22.7938 8.18514C22.8267 8.15219 22.8563 8.11607 22.8821 8.07732L22.8868 8.06947L22.8869 8.06959Z" fill="white"/>
</svg>
